<svg width="36" height="36" viewBox="0 0 36 36" fill="none" xmlns="http://www.w3.org/2000/svg">
<rect width="36" height="36" rx="18" fill="#2A7FFF"/>
<path d="M17.6111 25.6111C17.6111 25.8469 17.7048 26.073 17.8715 26.2397C18.0382 26.4064 18.2643 26.5 18.5 26.5C18.7357 26.5 18.9618 26.4064 19.1285 26.2397C19.2952 26.073 19.3889 25.8469 19.3889 25.6111V19.3889H25.6111C25.8469 19.3889 26.073 19.2952 26.2397 19.1285C26.4064 18.9618 26.5 18.7357 26.5 18.5C26.5 18.2643 26.4064 18.0382 26.2397 17.8715C26.073 17.7048 25.8469 17.6111 25.6111 17.6111H19.3889V11.3889C19.3889 11.1531 19.2952 10.927 19.1285 10.7603C18.9618 10.5937 18.7357 10.5 18.5 10.5C18.2643 10.5 18.0382 10.5937 17.8715 10.7603C17.7048 10.927 17.6111 11.1531 17.6111 11.3889V17.6111H11.3889C11.1531 17.6111 10.927 17.7048 10.7603 17.8715C10.5937 18.0382 10.5 18.2643 10.5 18.5C10.5 18.7357 10.5937 18.9618 10.7603 19.1285C10.927 19.2952 11.1531 19.3889 11.3889 19.3889H17.6111V25.6111Z" fill="white"/>
</svg>
