<svg width="40" height="40" viewBox="0 0 40 40" fill="none" xmlns="http://www.w3.org/2000/svg">
<rect width="40" height="40" fill="#252525"/>
<g id="Chat UI">
<path d="M-660 -1055C-660 -1056.1 -659.105 -1057 -658 -1057H978C979.105 -1057 980 -1056.1 980 -1055V2461C980 2462.1 979.105 2463 978 2463H-658C-659.105 2463 -660 2462.1 -660 2461V-1055Z" fill="#404040"/>
<path d="M-658 -1056H978V-1058H-658V-1056ZM979 -1055V2461H981V-1055H979ZM978 2462H-658V2464H978V2462ZM-659 2461V-1055H-661V2461H-659ZM-658 2462C-658.552 2462 -659 2461.55 -659 2461H-661C-661 2462.66 -659.657 2464 -658 2464V2462ZM979 2461C979 2461.55 978.552 2462 978 2462V2464C979.657 2464 981 2462.66 981 2461H979ZM978 -1056C978.552 -1056 979 -1055.55 979 -1055H981C981 -1056.66 979.657 -1058 978 -1058V-1056ZM-658 -1058C-659.657 -1058 -661 -1056.66 -661 -1055H-659C-659 -1055.55 -658.552 -1056 -658 -1056V-1058Z" fill="white" fill-opacity="0.1"/>
<g id="ATO Group Chat - 107 Side" clip-path="url(#clip0_0_1)">
<rect width="1440" height="1024" transform="translate(-560 -954)" fill="white"/>
<g id="Frame 106">
<g id="chat">
<rect width="896" height="100" transform="translate(-16 -30)" fill="#F8F8F8"/>
<g id="majesticons:attachment">
<path id="Vector" d="M16.6667 15V23.3333C16.6667 24.2174 17.0179 25.0652 17.643 25.6904C18.2681 26.3155 19.1159 26.6667 20 26.6667C20.8841 26.6667 21.7319 26.3155 22.357 25.6904C22.9821 25.0652 23.3333 24.2174 23.3333 23.3333V11.6667C23.3333 9.89856 22.631 8.20286 21.3807 6.95262C20.1305 5.70238 18.4348 5 16.6667 5C14.8986 5 13.2029 5.70238 11.9526 6.95262C10.7024 8.20286 10 9.89856 10 11.6667V25C10 27.6522 11.0536 30.1957 12.9289 32.0711C14.8043 33.9464 17.3478 35 20 35C22.6522 35 25.1957 33.9464 27.0711 32.0711C28.9464 30.1957 30 27.6522 30 25V8.33333" stroke="#2A7FFF" stroke-width="3" stroke-linecap="round" stroke-linejoin="round"/>
</g>
</g>
</g>
</g>
</g>
<defs>
<clipPath id="clip0_0_1">
<rect width="1440" height="1024" fill="white" transform="translate(-560 -954)"/>
</clipPath>
</defs>
</svg>
