<svg width="32" height="32" viewBox="0 0 32 32" fill="none" xmlns="http://www.w3.org/2000/svg">
<rect width="32" height="32" rx="16" fill="#2A7FFF"/>
<path d="M13.3935 18.6065L23 9M13.3935 18.6065L16.4501 24.7198C16.4884 24.8034 16.5499 24.8742 16.6273 24.9239C16.7047 24.9736 16.7948 25 16.8868 25C16.9787 25 17.0688 24.9736 17.1462 24.9239C17.2236 24.8742 17.2851 24.8034 17.3234 24.7198L23 9M13.3935 18.6065L7.28022 15.5499C7.19661 15.5116 7.12576 15.4501 7.07608 15.3727C7.02641 15.2953 7 15.2052 7 15.1132C7 15.0213 7.02641 14.9312 7.07608 14.8538C7.12576 14.7764 7.19661 14.7149 7.28022 14.6766L23 9" stroke="white" stroke-width="2" stroke-linecap="round" stroke-linejoin="round"/>
</svg>
