<svg width="40" height="40" viewBox="0 0 40 40" fill="none" xmlns="http://www.w3.org/2000/svg">
<path d="M33.1662 21.101C32.899 20.7968 32.7516 20.4058 32.7516 20.001C32.7516 19.5961 32.899 19.2051 33.1662 18.901L35.2995 16.501C35.5346 16.2387 35.6806 15.9088 35.7165 15.5585C35.7524 15.2081 35.6765 14.8554 35.4995 14.551L32.1662 8.7843C31.991 8.48017 31.7243 8.23909 31.4041 8.09544C31.0839 7.95179 30.7265 7.91289 30.3828 7.9843L27.2495 8.61763C26.8508 8.70001 26.4357 8.63361 26.0826 8.43096C25.7295 8.22832 25.4628 7.90344 25.3328 7.51763L24.3162 4.46763C24.2044 4.1366 23.9913 3.84907 23.7072 3.6457C23.4231 3.44233 23.0822 3.3334 22.7328 3.3343H16.0662C15.7027 3.31533 15.3431 3.41584 15.0421 3.62049C14.7412 3.82513 14.5155 4.12266 14.3995 4.46763L13.4662 7.51763C13.3362 7.90344 13.0695 8.22832 12.7164 8.43096C12.3633 8.63361 11.9482 8.70001 11.5495 8.61763L8.33284 7.9843C8.00709 7.93826 7.675 7.98967 7.37841 8.13203C7.08183 8.27439 6.834 8.50134 6.66617 8.7843L3.33283 14.551C3.15144 14.852 3.06987 15.2028 3.09981 15.553C3.12974 15.9032 3.26964 16.235 3.4995 16.501L5.61617 18.901C5.88337 19.2051 6.03073 19.5961 6.03073 20.001C6.03073 20.4058 5.88337 20.7968 5.61617 21.101L3.4995 23.501C3.26964 23.7669 3.12974 24.0987 3.09981 24.4489C3.06987 24.7992 3.15144 25.1499 3.33283 25.451L6.66617 31.2176C6.84133 31.5218 7.10803 31.7628 7.42826 31.9065C7.74848 32.0501 8.10588 32.089 8.4495 32.0176L11.5828 31.3843C11.9815 31.3019 12.3966 31.3683 12.7497 31.571C13.1028 31.7736 13.3695 32.0985 13.4995 32.4843L14.5162 35.5343C14.6321 35.8793 14.8578 36.1768 15.1588 36.3814C15.4597 36.5861 15.8194 36.6866 16.1828 36.6676H22.8495C23.1989 36.6685 23.5398 36.5596 23.8239 36.3562C24.108 36.1529 24.321 35.8653 24.4328 35.5343L25.4495 32.4843C25.5795 32.0985 25.8462 31.7736 26.1993 31.571C26.5524 31.3683 26.9675 31.3019 27.3662 31.3843L30.4995 32.0176C30.8431 32.089 31.2005 32.0501 31.5208 31.9065C31.841 31.7628 32.1077 31.5218 32.2828 31.2176L35.6162 25.451C35.7931 25.1465 35.8691 24.7938 35.8332 24.4435C35.7972 24.0931 35.6512 23.7632 35.4162 23.501L33.1662 21.101ZM30.6828 23.3343L32.0162 24.8343L29.8828 28.5343L27.9162 28.1343C26.7158 27.8889 25.4671 28.0928 24.4072 28.7073C23.3472 29.3218 22.5497 30.304 22.1662 31.4676L21.5328 33.3343H17.2662L16.6662 31.4343C16.2826 30.2707 15.4851 29.2884 14.4252 28.674C13.3652 28.0595 12.1165 27.8556 10.9162 28.101L8.9495 28.501L6.78284 24.8176L8.11617 23.3176C8.93609 22.4009 9.38939 21.2142 9.38939 19.9843C9.38939 18.7544 8.93609 17.5677 8.11617 16.651L6.78284 15.151L8.91617 11.4843L10.8828 11.8843C12.0832 12.1297 13.3319 11.9258 14.3918 11.3113C15.4518 10.6968 16.2493 9.71456 16.6328 8.55096L17.2662 6.66763H21.5328L22.1662 8.56763C22.5497 9.73123 23.3472 10.7135 24.4072 11.328C25.4671 11.9424 26.7158 12.1463 27.9162 11.901L29.8828 11.501L32.0162 15.201L30.6828 16.701C29.8721 17.6156 29.4245 18.7954 29.4245 20.0176C29.4245 21.2398 29.8721 22.4197 30.6828 23.3343ZM19.3995 13.3343C18.081 13.3343 16.792 13.7253 15.6957 14.4578C14.5994 15.1904 13.7449 16.2316 13.2403 17.4497C12.7357 18.6679 12.6037 20.0084 12.8609 21.3016C13.1182 22.5948 13.7531 23.7827 14.6855 24.715C15.6178 25.6474 16.8057 26.2823 18.0989 26.5395C19.3921 26.7968 20.7325 26.6647 21.9507 26.1602C23.1689 25.6556 24.2101 24.8011 24.9426 23.7048C25.6752 22.6084 26.0662 21.3195 26.0662 20.001C26.0662 18.2329 25.3638 16.5372 24.1135 15.2869C22.8633 14.0367 21.1676 13.3343 19.3995 13.3343ZM19.3995 23.3343C18.7402 23.3343 18.0958 23.1388 17.5476 22.7725C16.9994 22.4063 16.5722 21.8857 16.3199 21.2766C16.0676 20.6675 16.0016 19.9973 16.1302 19.3507C16.2588 18.7041 16.5763 18.1101 17.0425 17.6439C17.5087 17.1778 18.1026 16.8603 18.7492 16.7317C19.3958 16.6031 20.066 16.6691 20.6751 16.9214C21.2842 17.1737 21.8048 17.6009 22.1711 18.1491C22.5373 18.6972 22.7328 19.3417 22.7328 20.001C22.7328 20.885 22.3816 21.7329 21.7565 22.358C21.1314 22.9831 20.2836 23.3343 19.3995 23.3343Z" fill="#2A7FFF"/>
</svg>
